<svg width="121" height="27" viewBox="0 0 121 27" fill="none" xmlns="http://www.w3.org/2000/svg">
<path d="M117.099 3.97012V10.0116H119.485V12.9328H117.099V18.3767C117.099 18.9079 117.248 19.3062 117.546 19.5717C117.844 19.8373 118.292 19.9701 118.889 19.9701C119.187 19.9701 120.604 19.9701 120.604 19.9701V23.4223C120.604 23.4223 117.994 23.4223 117.621 23.4223C116.427 23.4223 114.936 23.2232 113.892 22.3601C112.848 21.497 112.401 20.3684 112.401 18.7751V12.8664H110.238V9.9452H112.401V3.97012H117.099ZM103.153 23.6879C100.991 23.6879 99.1261 23.024 97.8586 21.829C96.5161 20.634 95.9196 19.0406 95.9196 17.1817V16.717C95.9196 14.6589 96.5161 12.9991 97.7093 11.6714C98.9025 10.41 100.618 9.74605 102.855 9.74605C104.869 9.74605 106.509 10.2772 107.628 11.3394C108.821 12.468 109.343 13.9286 109.343 15.7875V17.9783H100.767V18.0447C100.841 18.7751 101.214 19.2398 101.737 19.7045C102.258 20.1693 103.004 20.3684 103.824 20.3684C104.719 20.3684 105.39 20.302 105.913 20.1693C106.434 20.0365 107.18 19.8373 107.926 19.5054L109.045 22.0945C108.373 22.5593 107.553 22.8912 106.509 23.2232C105.465 23.5551 104.272 23.6879 103.153 23.6879ZM102.78 12.9328C102.11 12.9328 101.587 13.1319 101.289 13.5966C100.991 14.0614 100.767 14.6589 100.692 15.3228L100.767 15.3892H104.794V15.0572C104.794 14.3269 104.645 13.8622 104.347 13.5303C103.899 13.0656 103.451 12.9328 102.78 12.9328ZM87.4182 23.6879C85.2555 23.6879 83.3909 23.024 82.1233 21.829C80.8558 20.634 80.1843 19.0406 80.1843 17.1817V16.717C80.1843 14.6589 80.7809 12.9991 81.974 11.6714C83.1672 10.41 84.8826 9.74605 87.1196 9.74605C89.1335 9.74605 90.774 10.2772 91.8928 11.3394C93.011 12.4016 93.6076 13.9286 93.6076 15.7875V17.9783H85.0318V18.0447C85.1062 18.7751 85.4791 19.2398 86.0013 19.7045C86.523 20.1693 87.2689 20.3684 88.0891 20.3684C88.9842 20.3684 89.6552 20.302 90.1774 20.1693C90.6996 20.0365 91.4449 19.8373 92.1908 19.5054L93.3096 22.0945C92.6381 22.5593 91.8179 22.8912 90.774 23.2232C89.8045 23.5551 88.6113 23.6879 87.4182 23.6879ZM87.1196 12.9328C86.4486 12.9328 85.9265 13.1319 85.6284 13.5966C85.3299 14.0614 85.1062 14.6589 85.0318 15.3228L85.1062 15.3892H89.1335V15.0572C89.1335 14.3269 88.9843 13.8622 88.6857 13.5303C88.2384 13.0656 87.7911 12.9328 87.1196 12.9328ZM73.1746 17.7128L74.8151 9.87885H79.0655L75.6353 23.3559H71.6829L69.2222 16.1859H69.1473L66.6866 23.3559H62.7342L59.2291 9.9452H63.5544L65.1949 17.8456H65.2693L67.6561 9.9452H70.639L73.1746 17.7128ZM53.412 19.5717C53.412 19.2398 53.1884 18.9079 52.7411 18.6423C52.2938 18.3767 51.5479 18.1111 50.4291 17.912C48.714 17.58 47.3716 17.1153 46.4767 16.5178C45.5819 15.8539 45.1344 14.9908 45.1344 13.8622C45.1344 12.6672 45.731 11.6714 46.775 10.8083C47.8937 9.9452 49.3853 9.61325 51.2494 9.61325C53.1884 9.61325 54.8289 10.0116 55.9476 10.8083C57.1408 11.605 57.663 12.6008 57.5881 13.9286V13.995H53.114C53.114 13.4639 52.9647 13.0655 52.6662 12.8C52.3682 12.5344 51.846 12.4016 51.2494 12.4016C50.7277 12.4016 50.3548 12.5344 49.9818 12.8C49.6089 13.0655 49.4596 13.3311 49.4596 13.7294C49.4596 14.1278 49.6833 14.3933 50.0562 14.6589C50.4291 14.9244 51.2494 15.1236 52.3682 15.3228C54.1579 15.6547 55.5747 16.1195 56.3949 16.717C57.2901 17.3809 57.7374 18.2439 57.7374 19.439C57.7374 20.634 57.1408 21.6298 55.9476 22.4265C54.7545 23.2232 53.1884 23.6215 51.2494 23.6215C49.236 23.6215 47.5954 23.1568 46.4022 22.2273C45.209 21.2979 44.6869 20.302 44.7615 19.107V19.0406H49.0123C49.0123 19.7045 49.236 20.1693 49.6833 20.3684C50.1311 20.5676 50.7277 20.8332 51.3987 20.8332C52.0696 20.8332 52.5174 20.7004 52.8155 20.5012C53.2628 20.302 53.412 19.9701 53.412 19.5717ZM33.1279 9.87885L33.2771 11.7378C33.7991 11.0739 34.3957 10.5428 35.0669 10.2108C35.8126 9.81245 36.5583 9.61325 37.4532 9.61325C38.8702 9.61325 40.0633 10.078 40.8837 10.8747C41.704 11.6714 42.1514 13.0655 42.1514 14.9244V23.3559H37.6024V14.9908C37.6024 14.1942 37.4532 13.7294 37.0804 13.3975C36.7075 13.0655 36.1854 12.9328 35.5143 12.9328C35.0669 12.9328 34.694 12.9992 34.3211 13.1319C33.9482 13.2647 33.65 13.4639 33.4262 13.7294V23.4223H28.8026V9.9452H33.1279V9.87885ZM25.9688 7.35603H21.2706V3.97012H25.9688V7.35603ZM25.9688 23.4223H21.2706V9.9452H25.9688V23.4223ZM10.9793 23.4223V12.8H8.81667V9.87885H10.9793V8.48464C10.9793 6.95768 11.5013 5.76267 12.4708 4.89962C13.5148 4.03656 15.0809 3.83736 16.1995 3.83736C16.5724 3.83736 19.1825 3.83736 19.1825 3.83736V7.22323C19.1825 7.22323 17.7656 7.22323 17.4673 7.22323C16.8707 7.22323 16.4232 7.35603 16.125 7.62159C15.8267 7.88714 15.6775 8.28549 15.6775 8.81659V9.81245H18.5859V12.7336H15.6775V23.2895H10.9793V23.4223ZM2.03038 5.09877C2.03038 1.04899 4.41675 0.717041 8.44379 0.717041V3.90376C6.57941 3.90376 5.83366 4.16932 5.83366 5.16517V10.41C5.83366 11.605 5.90825 12.8664 4.78962 13.663C5.90825 14.4597 5.83366 15.6547 5.83366 16.9161V22.1609C5.83366 23.2232 6.57941 23.4223 8.44379 23.4223V26.609C4.41675 26.609 2.03038 26.2771 2.03038 22.2273V16.9161C2.03038 16.0531 2.03038 15.1236 0.166016 15.1236V13.7294V12.3353C2.03038 12.3353 2.03038 11.3394 2.03038 10.5428V5.09877Z" fill="white"/>
</svg>
