<svg width="23" height="20" viewBox="0 0 23 20" fill="none" xmlns="http://www.w3.org/2000/svg">
<g clip-path="url(#clip0_396_260)">
<path d="M16.056 1.96973H7.13065C4.66598 1.96973 2.66797 3.75865 2.66797 5.96541V13.9568C2.66797 16.1635 4.66598 17.9525 7.13065 17.9525H16.056C18.5207 17.9525 20.5187 16.1635 20.5187 13.9568V5.96541C20.5187 3.75865 18.5207 1.96973 16.056 1.96973Z" stroke="white" stroke-width="2" stroke-linecap="round" stroke-linejoin="round"/>
<path d="M15.1632 9.45765C15.2734 10.1227 15.1465 10.802 14.8006 11.3988C14.4548 11.9956 13.9075 12.4795 13.2368 12.7818C12.566 13.0841 11.8059 13.1893 11.0645 13.0825C10.3231 12.9757 9.63819 12.6622 9.1072 12.1868C8.57621 11.7114 8.22617 11.0982 8.10687 10.4344C7.98757 9.77055 8.10508 9.08996 8.44269 8.48939C8.78031 7.88883 9.32083 7.39887 9.98737 7.0892C10.6539 6.77954 11.4125 6.66594 12.1554 6.76456C12.9131 6.86516 13.6145 7.18128 14.1561 7.66623C14.6978 8.15118 15.0508 8.77924 15.1632 9.45765Z" stroke="white" stroke-width="2" stroke-linecap="round" stroke-linejoin="round"/>
<path d="M16.502 5.56586H16.5116" stroke="white" stroke-width="2" stroke-linecap="round" stroke-linejoin="round"/>
</g>
<defs>
<clipPath id="clip0_396_260">
<rect width="21.4209" height="19.1793" fill="white" transform="translate(0.882812 0.37146)"/>
</clipPath>
</defs>
</svg>
