<svg width="22" height="20" viewBox="0 0 22 20" fill="none" xmlns="http://www.w3.org/2000/svg">
<path d="M20.7696 2.76884C19.9149 3.30864 18.9686 3.7215 17.967 3.99152C17.4295 3.43812 16.7151 3.04589 15.9205 2.86787C15.1258 2.68985 14.2893 2.73463 13.5241 2.99616C12.7588 3.25768 12.1017 3.72333 11.6416 4.33012C11.1815 4.93692 10.9407 5.65559 10.9517 6.38893V7.18806C9.38318 7.22448 7.82895 6.91301 6.42743 6.2814C5.02591 5.64979 3.82061 4.71764 2.91886 3.56798C2.91886 3.56798 -0.651284 10.7602 7.38155 13.9567C5.54339 15.0739 3.35367 15.6341 1.13379 15.555C9.16662 19.5507 18.9845 15.555 18.9845 6.36495C18.9837 6.14235 18.9598 5.92031 18.9131 5.70167C19.824 4.89733 20.4669 3.88181 20.7696 2.76884V2.76884Z" fill="white"/>
</svg>
