<svg width="22" height="21" viewBox="0 0 22 21" fill="none" xmlns="http://www.w3.org/2000/svg">
<g clip-path="url(#clip0_249_91)">
<path d="M15.556 2.53278H6.66302C4.20731 2.53278 2.21655 4.32573 2.21655 6.53746V14.5468C2.21655 16.7585 4.20731 18.5515 6.66302 18.5515H15.556C18.0117 18.5515 20.0024 16.7585 20.0024 14.5468V6.53746C20.0024 4.32573 18.0117 2.53278 15.556 2.53278Z" stroke="white" stroke-width="2" stroke-linecap="round" stroke-linejoin="round"/>
<path d="M14.6667 10.0375C14.7765 10.7041 14.65 11.3849 14.3054 11.983C13.9608 12.5811 13.4156 13.0662 12.7473 13.3692C12.079 13.6721 11.3216 13.7776 10.5829 13.6705C9.84417 13.5635 9.16176 13.2493 8.6327 12.7728C8.10364 12.2964 7.75487 11.6817 7.636 11.0164C7.51713 10.3511 7.63422 9.66901 7.97061 9.06709C8.30699 8.46517 8.84555 7.9741 9.50967 7.66374C10.1738 7.35338 10.9297 7.23952 11.6698 7.33837C12.4247 7.43919 13.1236 7.75603 13.6633 8.24207C14.203 8.72811 14.5548 9.35759 14.6667 10.0375Z" stroke="white" stroke-width="2" stroke-linecap="round" stroke-linejoin="round"/>
<path d="M16.0007 6.13702H16.0104" stroke="white" stroke-width="2" stroke-linecap="round" stroke-linejoin="round"/>
</g>
<defs>
<clipPath id="clip0_249_91">
<rect width="21.3431" height="19.2225" fill="white" transform="translate(0.437988 0.930908)"/>
</clipPath>
</defs>
</svg>
