<svg width="22" height="21" viewBox="0 0 22 21" fill="none" xmlns="http://www.w3.org/2000/svg">
<path d="M21.1111 3.33368C20.2595 3.87469 19.3166 4.28848 18.3187 4.55911C17.7831 4.00447 17.0713 3.61135 16.2796 3.43293C15.4879 3.25451 14.6544 3.29939 13.8919 3.56151C13.1294 3.82362 12.4747 4.29032 12.0163 4.89848C11.5579 5.50664 11.3179 6.22693 11.3289 6.96192V7.76285C9.76605 7.79935 8.21747 7.48718 6.82104 6.85415C5.42462 6.22111 4.22369 5.28687 3.32522 4.13461C3.32522 4.13461 -0.231958 11.343 7.77169 14.5468C5.94021 15.6665 3.75845 16.2279 1.54663 16.1487C9.55028 20.1533 19.3325 16.1487 19.3325 6.93789C19.3317 6.71479 19.3079 6.49224 19.2614 6.27311C20.169 5.46696 20.8095 4.44915 21.1111 3.33368Z" fill="white"/>
</svg>
