<svg width="20" height="17" viewBox="0 0 20 17" fill="none" xmlns="http://www.w3.org/2000/svg">
<path fill-rule="evenodd" clip-rule="evenodd" d="M18.8748 1.75011C19.1786 2.10745 19.3943 2.54994 19.5002 3.03288C19.7831 4.82251 19.9204 6.63814 19.9104 8.45662C19.9161 10.2479 19.7788 12.0361 19.5002 13.799C19.3943 14.2819 19.1786 14.7244 18.8748 15.0817C18.5711 15.4391 18.1901 15.6986 17.7703 15.8341C16.2365 16.3022 10.1015 16.3022 10.1015 16.3022C10.1015 16.3022 3.96648 16.3022 2.43272 15.8341C2.02148 15.7057 1.64621 15.4585 1.34317 15.1162C1.04013 14.774 0.819563 14.3483 0.702784 13.8804C0.419902 12.0907 0.282588 10.2751 0.292593 8.45662C0.284778 6.65173 0.422084 4.84984 0.702784 3.07358C0.80871 2.59064 1.02444 2.14816 1.32819 1.79081C1.63194 1.43347 2.01294 1.17393 2.43272 1.0384C3.96648 0.570313 10.1015 0.570312 10.1015 0.570312C10.1015 0.570312 16.2365 0.570313 17.7703 0.9977C18.1901 1.13323 18.5711 1.39277 18.8748 1.75011ZM13.2229 8.45665L8.09551 11.7842V5.12914L13.2229 8.45665Z" fill="white"/>
</svg>
