<svg width="11" height="11" viewBox="0 0 11 11" fill="none" xmlns="http://www.w3.org/2000/svg">
<path d="M9.07 5.06998C9.18005 5.91686 9.05329 6.78178 8.70775 7.54172C8.3622 8.30165 7.81548 8.9179 7.14534 9.30281C6.47519 9.68773 5.71575 9.82171 4.97503 9.68569C4.23432 9.54967 3.55004 9.15059 3.01954 8.54521C2.48904 7.93982 2.13932 7.15896 2.02013 6.31369C1.90094 5.46842 2.01834 4.60178 2.35564 3.83705C2.69295 3.07231 3.23297 2.44841 3.89891 2.0541C4.56484 1.65978 5.32278 1.51513 6.06491 1.64071C6.82191 1.76881 7.52273 2.17135 8.06387 2.78886C8.605 3.40638 8.95775 4.20613 9.07 5.06998Z" stroke="white" stroke-width="2" stroke-linecap="round" stroke-linejoin="round"/>
</svg>
