<svg width="20" height="19" viewBox="0 0 20 19" fill="none" xmlns="http://www.w3.org/2000/svg">
<path d="M19.7133 0.552713C18.8594 1.24007 17.9139 1.76579 16.9133 2.10962C16.3763 1.40495 15.6626 0.905503 14.8687 0.678819C14.0748 0.452135 13.239 0.509156 12.4744 0.842169C11.7099 1.17518 11.0534 1.76812 10.5937 2.54079C10.1341 3.31346 9.89346 4.22858 9.90443 5.16239V6.17997C8.33735 6.22634 6.78455 5.82973 5.38431 5.02547C3.98408 4.2212 2.77988 3.03424 1.87896 1.5703C1.87896 1.5703 -1.68792 10.7286 6.33755 14.7989C4.50108 16.2215 2.31337 16.9348 0.09552 16.8341C8.12099 21.9221 17.9299 16.8341 17.9299 5.13186C17.9291 4.84841 17.9052 4.56567 17.8586 4.28726C18.7687 3.26305 19.4109 1.96992 19.7133 0.552713Z" fill="white"/>
</svg>
