<svg width="120" height="27" viewBox="0 0 120 27" fill="none" xmlns="http://www.w3.org/2000/svg">
<path d="M116.508 4.15023V10.2053H118.886V13.1331H116.508V18.5893C116.508 19.1216 116.656 19.5208 116.954 19.787C117.251 20.0531 117.697 20.1862 118.291 20.1862C118.588 20.1862 120 20.1862 120 20.1862V23.6463C120 23.6463 117.4 23.6463 117.028 23.6463C115.839 23.6463 114.353 23.4467 113.313 22.5817C112.273 21.7166 111.827 20.5855 111.827 18.9885V13.0665H109.672V10.1388H111.827V4.15023H116.508ZM102.613 23.9124C100.458 23.9124 98.6006 23.2471 97.3377 22.0493C96.0001 20.8516 95.4057 19.2547 95.4057 17.3916V16.9258C95.4057 14.8631 96.0001 13.1996 97.1889 11.8688C98.3778 10.6046 100.087 9.93917 102.316 9.93917C104.322 9.93917 105.957 10.4715 107.072 11.5361C108.26 12.6673 108.78 14.1312 108.78 15.9943V18.19H100.236V18.2566C100.31 18.9885 100.681 19.4543 101.202 19.9201C101.721 20.3859 102.465 20.5855 103.282 20.5855C104.174 20.5855 104.842 20.5189 105.363 20.3859C105.882 20.2528 106.625 20.0532 107.369 19.7205L108.483 22.3155C107.814 22.7813 106.997 23.114 105.957 23.4467C104.917 23.7794 103.728 23.9124 102.613 23.9124ZM102.242 13.1331C101.573 13.1331 101.053 13.3327 100.755 13.7984C100.458 14.2642 100.236 14.8631 100.161 15.5285L100.236 15.595H104.248V15.2623C104.248 14.5304 104.099 14.0646 103.802 13.7319C103.356 13.2662 102.91 13.1331 102.242 13.1331ZM86.9352 23.9124C84.7804 23.9124 82.9225 23.2471 81.6596 22.0493C80.3966 20.8516 79.7276 19.2547 79.7276 17.3916V16.9258C79.7276 14.8631 80.322 13.1996 81.5108 11.8688C82.6997 10.6046 84.4088 9.93917 86.6377 9.93917C88.6443 9.93917 90.2788 10.4715 91.3935 11.5361C92.5078 12.6007 93.1022 14.1312 93.1022 15.9943V18.19H84.5575V18.2566C84.6316 18.9885 85.0032 19.4543 85.5235 19.9201C86.0433 20.3859 86.7865 20.5855 87.6037 20.5855C88.4956 20.5855 89.1641 20.5189 89.6844 20.3859C90.2047 20.2528 90.9473 20.0532 91.6905 19.7205L92.8052 22.3155C92.1362 22.7813 91.3189 23.114 90.2788 23.4467C89.3128 23.7794 88.124 23.9124 86.9352 23.9124ZM86.6377 13.1331C85.9692 13.1331 85.4489 13.3327 85.152 13.7984C84.8545 14.2642 84.6316 14.8631 84.5575 15.5285L84.6316 15.595H88.6443V15.2623C88.6443 14.5304 88.4956 14.0646 88.1981 13.7319C87.7524 13.2662 87.3068 13.1331 86.6377 13.1331ZM72.7434 17.9239L74.3779 10.0723H78.6129L75.1951 23.5797H71.2571L68.8053 16.3935H68.7307L66.279 23.5797H62.3409L58.8485 10.1388H63.1581L64.7927 18.057H64.8668L67.2449 10.1388H70.217L72.7434 17.9239ZM53.0526 19.787C53.0526 19.4543 52.8298 19.1216 52.3841 18.8554C51.9384 18.5893 51.1953 18.3231 50.0805 18.1235C48.3716 17.7908 47.0341 17.3251 46.1425 16.7262C45.2509 16.0608 44.805 15.1958 44.805 14.0646C44.805 12.8669 45.3995 11.8688 46.4397 11.0038C47.5543 10.1388 49.0405 9.80608 50.8978 9.80608C52.8298 9.80608 54.4643 10.2053 55.579 11.0038C56.7678 11.8023 57.2881 12.8004 57.2135 14.1311V14.1977H52.7557C52.7557 13.6654 52.6069 13.2661 52.3095 13C52.0125 12.7338 51.4922 12.6007 50.8978 12.6007C50.378 12.6007 50.0064 12.7338 49.6349 13C49.2633 13.2661 49.1146 13.5323 49.1146 13.9315C49.1146 14.3308 49.3374 14.5969 49.709 14.8631C50.0805 15.1292 50.8978 15.3289 52.0125 15.5285C53.7958 15.8612 55.2074 16.327 56.0247 16.9258C56.9166 17.5912 57.3622 18.4562 57.3622 19.6539C57.3622 20.8516 56.7678 21.8497 55.579 22.6482C54.3902 23.4467 52.8298 23.8459 50.8978 23.8459C48.8917 23.8459 47.2571 23.3801 46.0682 22.4486C44.8794 21.517 44.3592 20.5189 44.4335 19.3212V19.2547H48.6689C48.6689 19.9201 48.8917 20.3859 49.3374 20.5855C49.7836 20.7851 50.378 21.0513 51.0465 21.0513C51.7151 21.0513 52.1613 20.9182 52.4582 20.7186C52.9039 20.5189 53.0526 20.1862 53.0526 19.787ZM32.8422 10.0723L32.9908 11.9354C33.5109 11.27 34.1053 10.7377 34.7741 10.405C35.5171 10.0057 36.2601 9.80608 37.1518 9.80608C38.5635 9.80608 39.7524 10.2719 40.5697 11.0704C41.3871 11.8688 41.8329 13.2661 41.8329 15.1292V23.5797H37.3004V15.1958C37.3004 14.3973 37.1518 13.9315 36.7803 13.5988C36.4087 13.2661 35.8886 13.1331 35.2199 13.1331C34.7741 13.1331 34.4025 13.1996 34.031 13.3327C33.6595 13.4658 33.3623 13.6654 33.1394 13.9315V23.6463H28.5325V10.1388H32.8422V10.0723ZM25.709 7.54378H21.0279V4.15023H25.709V7.54378ZM25.709 23.6463H21.0279V10.1388H25.709V23.6463ZM10.774 23.6463V13H8.61923V10.0723H10.774V8.67493C10.774 7.14453 11.2941 5.94683 12.2601 5.08183C13.3003 4.21683 14.8607 4.01718 15.9753 4.01718C16.3468 4.01718 18.9474 4.01718 18.9474 4.01718V7.41068C18.9474 7.41068 17.5356 7.41068 17.2384 7.41068C16.644 7.41068 16.1982 7.54378 15.901 7.80993C15.6038 8.07608 15.4551 8.47532 15.4551 9.00763V10.0057H18.353V12.9334H15.4551V23.5132H10.774V23.6463ZM1.85759 5.28143C1.85759 1.22253 4.23529 0.889832 8.24771 0.889832V4.08373C6.3901 4.08373 5.64706 4.34988 5.64706 5.34798V10.6046C5.64706 11.8023 5.72137 13.0665 4.60681 13.865C5.72137 14.6635 5.64706 15.8612 5.64706 17.1254V22.382C5.64706 23.4467 6.3901 23.6463 8.24771 23.6463V26.8402C4.23529 26.8402 1.85759 26.5075 1.85759 22.4486V17.1254C1.85759 16.2604 1.85759 15.3289 0 15.3289V13.9315V12.5342C1.85759 12.5342 1.85759 11.5361 1.85759 10.7377V5.28143Z" fill="white"/>
</svg>
